<?xml version="1.0" standalone="no"?>
<!DOCTYPE svg PUBLIC "-//W3C//DTD SVG 20010904//EN"
 "http://www.w3.org/TR/2001/REC-SVG-20010904/DTD/svg10.dtd">
<svg version="1.0" xmlns="http://www.w3.org/2000/svg"
 width="693.000000pt" height="693.000000pt" viewBox="0 0 693.000000 693.000000"
 preserveAspectRatio="xMidYMid meet">
<metadata>
Created by potrace 1.11, written by Peter Selinger 2001-2013
</metadata>
<g transform="translate(0.000000,693.000000) scale(0.100000,-0.100000)"
fill="#000000" stroke="none">
<path d="M2395 5089 c-18 -6 -76 -8 -142 -5 -101 5 -115 4 -131 -12 -11 -11
-40 -33 -65 -50 -25 -18 -49 -41 -52 -52 -4 -11 -21 -27 -38 -36 -18 -9 -41
-25 -53 -35 -17 -16 -114 -44 -114 -33 0 3 13 32 29 65 32 67 35 65 -57 32
-65 -24 -67 -26 -64 -66 8 -112 -142 -242 -358 -312 -112 -37 -198 -100 -370
-274 -74 -75 -161 -154 -192 -176 -59 -39 -67 -52 -46 -73 26 -26 99 -7 306
78 90 36 106 40 118 28 12 -12 11 -24 -12 -86 -15 -40 -24 -75 -21 -78 3 -3
17 1 32 9 24 12 33 12 80 -5 l52 -20 63 27 c36 15 84 45 109 66 28 25 54 39
71 39 74 0 121 14 159 46 21 19 48 34 60 34 11 0 30 14 43 31 13 17 49 49 81
71 32 21 63 48 70 59 22 37 88 66 163 73 58 6 73 4 84 -9 15 -18 15 -19 -32
-38 -70 -29 -125 -79 -167 -153 -37 -63 -53 -124 -33 -124 4 0 24 14 45 31 20
17 37 26 37 21 0 -5 20 -7 44 -5 30 4 59 0 89 -13 37 -15 51 -30 93 -99 l50
-80 66 0 c51 0 71 -4 87 -19 16 -15 24 -16 35 -7 12 10 20 9 39 -4 24 -15 26
-15 53 18 16 19 54 47 84 62 49 25 68 28 168 31 86 3 123 8 158 24 26 11 67
20 92 20 43 0 44 -1 29 -18 -12 -13 -16 -35 -16 -70 1 -46 4 -52 23 -52 12 0
27 -5 33 -11 9 -9 20 -9 44 0 27 9 34 8 45 -7 10 -14 15 -15 25 -4 11 10 10
12 -3 12 -9 0 -18 11 -21 27 -4 20 2 33 22 54 15 15 28 34 28 43 0 20 -13 21
-21 1 -11 -30 -28 -16 -21 18 9 37 22 49 48 41 28 -9 21 25 -9 38 -18 9 -30 9
-43 1 -13 -8 -22 -6 -43 12 -24 21 -25 24 -14 66 6 25 19 57 29 72 21 32 22
53 2 61 -8 3 -15 12 -15 19 0 8 -26 34 -57 57 -32 24 -59 44 -61 46 -2 1 4 17
14 36 9 18 18 48 20 67 1 19 10 38 18 43 9 5 16 16 16 24 0 14 -13 15 -92 9
-174 -12 -191 -11 -242 19 -41 24 -51 37 -95 129 -26 56 -61 139 -76 185 -16
45 -34 82 -40 82 -7 0 -20 -9 -30 -20 -21 -23 -39 -16 -32 12 5 18 2 19 -26
14 -37 -7 -41 -7 -87 -1 -19 2 -48 0 -65 -6z m-464 -331 c-12 -21 -38 -40 -68
-53 -26 -11 -65 -37 -85 -58 -41 -42 -63 -44 -63 -7 0 17 12 32 40 51 50 33
175 99 187 99 6 0 1 -15 -11 -32z"/>
<path d="M3371 3963 c-13 -3 -20 -8 -15 -11 6 -4 20 -33 32 -65 18 -49 19 -59
7 -63 -22 -9 -18 -24 6 -24 27 0 61 -19 54 -30 -9 -14 13 -50 30 -50 8 0 15
-7 15 -16 0 -13 -7 -14 -42 -8 -24 4 -70 8 -104 8 -36 1 -68 7 -77 15 -23 18
-47 7 -47 -23 0 -31 -9 -56 -21 -56 -5 0 -29 18 -54 41 -46 43 -126 79 -173
79 -20 0 -35 -9 -50 -30 -19 -25 -30 -30 -63 -30 -26 0 -42 -5 -45 -15 -5 -11
-11 -12 -24 -5 -10 6 -37 10 -60 10 -34 0 -42 -4 -53 -27 -6 -16 -36 -51 -65
-80 -41 -41 -54 -49 -59 -36 -3 8 2 28 11 44 17 28 17 28 -10 35 -22 6 -32 2
-53 -25 -19 -23 -34 -31 -58 -31 -36 0 -70 -36 -98 -104 -9 -21 -36 -68 -61
-105 -30 -44 -44 -76 -44 -98 0 -29 -5 -35 -40 -49 -23 -9 -40 -23 -40 -32 0
-9 -11 -32 -24 -51 -27 -40 -45 -111 -28 -111 25 0 83 48 103 86 13 24 34 45
50 51 28 11 84 87 95 131 3 12 10 22 15 22 5 0 22 14 38 32 32 36 62 32 36 -5
-8 -12 -15 -29 -15 -39 0 -10 -9 -27 -20 -38 -11 -11 -20 -31 -20 -44 0 -14
-11 -37 -23 -53 -31 -36 -84 -155 -97 -215 -5 -26 -7 -60 -4 -77 5 -25 2 -35
-18 -50 -29 -23 -50 -98 -48 -172 1 -34 -6 -76 -20 -114 -12 -33 -26 -80 -30
-104 -8 -48 10 -194 27 -226 11 -19 10 -44 -8 -169 -9 -65 -8 -71 21 -128 16
-33 32 -77 36 -97 9 -48 41 -112 68 -133 28 -23 53 -22 119 3 79 30 146 90
183 163 17 33 43 84 58 112 37 71 57 204 44 304 -5 43 -29 130 -56 204 -45
126 -46 129 -29 158 20 34 22 96 5 133 -10 21 -8 30 9 53 49 66 66 115 69 196
3 71 6 81 26 92 15 8 25 24 28 46 4 27 13 38 54 59 31 17 59 43 78 73 17 25
34 46 39 46 11 0 12 3 -7 -59 -8 -29 -14 -71 -12 -94 2 -34 7 -43 25 -45 18
-3 25 6 42 53 13 35 21 79 21 119 0 73 11 88 80 106 79 22 77 20 55 32 -50 27
-59 72 -20 108 14 13 25 29 25 35 0 7 19 16 43 21 38 9 46 7 81 -18 21 -15 52
-28 67 -28 42 0 77 -20 91 -50 9 -22 26 -32 80 -49 81 -26 144 -72 175 -126
28 -49 28 -52 3 -60 -28 -9 -28 -68 0 -88 27 -19 34 -79 20 -173 -10 -69 -16
-83 -45 -110 -19 -17 -38 -47 -44 -71 -12 -44 -51 -83 -83 -83 -22 0 -38 -36
-38 -89 0 -44 32 -81 70 -81 29 0 106 77 126 127 12 28 27 40 80 63 62 28 67
29 96 14 46 -24 68 -88 94 -269 12 -88 27 -172 33 -187 9 -24 13 -25 43 -18
54 13 65 20 84 56 10 19 26 34 36 34 9 0 34 14 54 32 l36 32 -3 171 c-4 147
-2 174 13 196 9 14 22 45 28 68 7 28 20 48 38 58 15 9 38 38 51 64 26 53 24
112 -5 157 -8 12 -12 27 -8 33 3 6 -7 23 -22 39 -16 15 -37 39 -47 54 -10 14
-24 26 -32 26 -8 0 -15 8 -15 18 0 10 -5 23 -12 30 -16 16 -7 15 32 -5 19 -9
55 -16 82 -15 49 1 57 -5 37 -25 -14 -14 17 -103 36 -103 7 0 18 -7 25 -15 11
-14 14 -13 25 1 6 10 17 14 23 10 12 -7 -9 -56 -33 -76 -8 -7 -15 -17 -15 -22
0 -5 7 -2 16 7 9 9 26 15 38 13 18 -3 21 -9 18 -48 l-3 -45 29 28 c33 32 72
36 72 8 0 -28 41 -56 116 -81 74 -25 81 -22 94 35 7 33 5 40 -16 60 -31 29
-30 37 6 58 30 18 30 18 40 -8 10 -27 49 -48 64 -35 4 5 -24 46 -63 92 -39 45
-71 89 -71 96 0 7 -8 24 -17 39 -16 24 -16 26 1 39 11 7 24 15 30 17 8 3 8 8
1 16 -8 8 -20 8 -44 -2 -32 -12 -34 -11 -66 27 -18 22 -54 81 -80 133 -34 67
-53 94 -69 97 -11 2 -63 12 -114 21 -90 17 -95 17 -127 -1 -38 -20 -61 -11
-31 12 19 13 18 14 -10 14 -16 0 -34 -4 -40 -8 -15 -9 -28 -52 -16 -52 5 0 7
-13 4 -29 -2 -16 1 -32 7 -35 7 -4 11 1 11 12 0 23 35 70 45 60 4 -3 1 -16 -5
-29 -11 -20 -10 -21 9 -16 11 3 21 3 21 1 0 -11 -42 -82 -64 -108 -21 -25 -28
-28 -60 -22 -21 4 -65 25 -99 47 -33 22 -86 46 -117 54 -158 43 -221 67 -218
83 2 12 15 17 43 19 22 1 53 6 68 12 38 15 39 14 28 -7 -13 -24 12 -64 35 -55
8 3 24 -3 34 -12 24 -22 39 -12 23 14 -10 15 -9 22 5 34 22 19 82 39 82 27 0
-5 11 -21 24 -35 l24 -25 6 24 c3 14 15 27 26 31 10 3 22 15 25 26 4 13 15 19
36 19 16 0 29 5 29 10 0 6 -25 10 -55 10 -31 0 -69 7 -84 15 -19 9 -74 16
-162 20 -137 5 -159 9 -314 46 -49 11 -110 24 -135 27 -47 7 -48 8 -39 72 4
27 -11 32 -60 23z m253 -238 c15 -26 17 -38 8 -47 -8 -8 -15 -8 -26 1 -8 7
-20 11 -28 10 -37 -5 -69 2 -65 14 2 6 10 11 16 9 7 -1 21 3 32 9 16 8 18 13
8 25 -9 11 -7 14 13 14 17 0 29 -10 42 -35z"/>
<path d="M6010 2860 c-8 -5 -24 -7 -35 -4 -26 6 -88 -28 -91 -50 -1 -10 -14
-31 -28 -45 -34 -35 -33 -42 7 -36 28 5 26 2 -18 -19 -27 -14 -53 -25 -57 -25
-3 -1 -20 11 -37 25 -24 20 -38 24 -57 20 -20 -5 -33 -1 -50 15 -24 23 -29 23
-169 -1 -38 -6 -90 -17 -115 -25 -25 -7 -52 -13 -60 -13 -31 0 -136 -24 -160
-37 -14 -7 -43 -32 -65 -54 -25 -26 -45 -39 -55 -36 -9 3 -24 -3 -32 -12 -35
-39 -89 -127 -86 -141 4 -17 71 -42 116 -42 18 0 45 6 60 13 15 8 80 26 145
42 102 24 132 27 231 23 104 -4 118 -7 153 -31 34 -23 43 -26 73 -17 19 6 68
10 108 10 84 0 126 15 185 65 22 19 58 41 80 47 50 15 59 34 47 98 -10 53 -3
84 21 92 8 3 10 14 5 31 -5 22 -12 27 -36 27 -17 0 -30 5 -30 10 0 6 -8 10
-18 10 -31 0 -44 21 -25 42 19 21 15 31 -7 18z"/>
<path d="M5156 2301 c9 -17 20 -29 25 -26 12 8 12 45 0 45 -5 0 -16 3 -25 6
-14 5 -14 3 0 -25z"/>
<path d="M5152 2230 c-21 -13 -33 -16 -38 -8 -8 13 -129 5 -264 -19 -78 -13
-100 -21 -121 -43 -14 -14 -34 -30 -45 -35 -15 -6 -10 -10 26 -16 98 -16 98
-28 0 -22 -63 4 -108 12 -132 24 -27 14 -59 19 -116 19 -98 0 -144 -23 -239
-117 -35 -35 -71 -63 -80 -63 -18 0 -108 -53 -140 -83 -13 -11 -23 -31 -23
-44 0 -28 -16 -30 -25 -3 -7 23 -30 25 -85 9 -32 -10 -42 -9 -61 5 -13 9 -31
16 -41 16 -14 0 -16 7 -12 38 3 28 2 32 -5 17 -5 -11 -10 -30 -10 -42 -1 -13
-21 -50 -46 -84 -25 -34 -45 -65 -45 -69 0 -5 21 -16 48 -26 26 -9 61 -28 79
-41 19 -14 46 -23 68 -23 48 0 37 -15 -17 -25 -40 -6 -41 -8 -19 -16 13 -5 39
-7 57 -3 18 3 48 0 67 -7 30 -11 44 -9 119 14 63 20 97 25 134 21 48 -5 51 -4
109 45 71 60 118 86 243 135 149 59 393 181 447 225 28 22 67 50 87 61 21 11
44 33 53 49 8 16 28 39 45 51 30 21 37 43 22 67 -6 9 -16 8 -40 -7z"/>
<path d="M3883 2133 c-7 -2 -13 -12 -13 -22 0 -9 -4 -21 -9 -26 -4 -6 -11 -25
-15 -44 l-6 -33 40 33 c21 19 52 44 67 56 27 22 27 22 6 23 -13 0 -23 5 -23
10 0 10 -26 12 -47 3z"/>
</g>
</svg>
